<svg width="72" height="72" viewBox="0 0 72 72" fill="none" xmlns="http://www.w3.org/2000/svg">
<g clip-path="url(#clip0_1_812)">
<path d="M13.9997 48C17.9137 48 21.2657 50.27 22.9097 53.544L29.8637 50.066C26.9757 44.116 20.8917 40 13.8317 40C11.3148 40.0006 8.82698 40.5371 6.53366 41.574L9.86966 48.914C11.1648 48.3166 12.5734 48.0049 13.9997 48ZM57.9997 48C60.9337 48 63.5437 49.286 65.3757 51.296L71.1697 46.026C69.5019 44.132 67.4498 42.6149 65.15 41.5759C62.8501 40.5368 60.3553 39.9996 57.8317 40C50.6797 40 44.5277 44.222 41.6857 50.3L48.9817 53.744C50.5857 50.36 54.0057 48 57.9997 48Z" fill="#EA596E"/>
<path d="M13.9997 44C12.1612 44 10.3407 44.3621 8.6421 45.0657C6.94354 45.7693 5.40019 46.8005 4.10017 48.1005C2.80015 49.4005 1.76892 50.9439 1.06535 52.6424C0.361785 54.341 -0.000335693 56.1615 -0.000335693 58C-0.000335693 59.8385 0.361785 61.659 1.06535 63.3576C1.76892 65.0561 2.80015 66.5995 4.10017 67.8995C5.40019 69.1995 6.94354 70.2307 8.6421 70.9343C10.3407 71.6379 12.1612 72 13.9997 72C17.7127 72 21.2736 70.525 23.8992 67.8995C26.5247 65.274 27.9997 61.713 27.9997 58C27.9997 54.287 26.5247 50.726 23.8992 48.1005C21.2736 45.475 17.7127 44 13.9997 44ZM13.9997 68C11.3475 68 8.80396 66.9464 6.9286 65.0711C5.05323 63.1957 3.99966 60.6522 3.99966 58C3.99966 55.3478 5.05323 52.8043 6.9286 50.9289C8.80396 49.0536 11.3475 48 13.9997 48C16.6518 48 19.1954 49.0536 21.0707 50.9289C22.9461 52.8043 23.9997 55.3478 23.9997 58C23.9997 60.6522 22.9461 63.1957 21.0707 65.0711C19.1954 66.9464 16.6518 68 13.9997 68ZM57.9997 44C54.2864 44.0003 50.7253 45.4756 48.0998 48.1015C45.4742 50.7274 43.9994 54.2887 43.9997 58.002C43.9999 61.7153 45.4753 65.2764 48.1012 67.9019C50.7271 70.5274 54.2884 72.0023 58.0017 72.002C59.8403 72.0019 61.6609 71.6396 63.3595 70.9359C65.0582 70.2321 66.6016 69.2007 67.9016 67.9005C69.2016 66.6003 70.2328 65.0568 70.9363 63.358C71.6398 61.6593 72.0018 59.8386 72.0017 58C72.0015 56.1614 71.6393 54.3408 70.9355 52.6421C70.2318 50.9435 69.2004 49.4001 67.9002 48.1001C66.6 46.8001 65.0564 45.7689 63.3577 45.0654C61.659 44.3619 59.8383 43.9999 57.9997 44ZM57.9997 68C55.3475 68 52.804 66.9464 50.9286 65.0711C49.0532 63.1957 47.9997 60.6522 47.9997 58C47.9997 55.3478 49.0532 52.8043 50.9286 50.9289C52.804 49.0536 55.3475 48 57.9997 48C60.6518 48 63.1954 49.0536 65.0707 50.9289C66.9461 52.8043 67.9997 55.3478 67.9997 58C67.9997 60.6522 66.9461 63.1957 65.0707 65.0711C63.1954 66.9464 60.6518 68 57.9997 68Z" fill="#292F33"/>
<path d="M59.9677 57.844C59.9547 57.7096 59.9279 57.5769 59.8877 57.448C59.8526 57.3197 59.805 57.1951 59.7457 57.076C59.7197 57.028 59.7157 56.972 59.6877 56.926L45.6877 34.926C45.5467 34.7043 45.3634 34.5125 45.1483 34.3616C44.9331 34.2107 44.6904 34.1037 44.4339 34.0467C44.1774 33.9897 43.9122 33.9837 43.6534 34.0293C43.3946 34.0748 43.1473 34.1709 42.9257 34.312C42.6464 34.4943 42.4181 34.7448 42.2624 35.0398C42.1067 35.3347 42.0286 35.6645 42.0357 35.998H23.9997C23.4692 35.998 22.9605 36.2087 22.5855 36.5838C22.2104 36.9589 21.9997 37.4676 21.9997 37.998C21.9997 38.5284 22.2104 39.0371 22.5855 39.4122C22.9605 39.7873 23.4692 39.998 23.9997 39.998H43.9997C44.0537 39.998 44.0997 39.97 44.1537 39.966L54.3557 56H35.9997C35.4692 56 34.9605 56.2107 34.5854 56.5858C34.2104 56.9609 33.9997 57.4696 33.9997 58C33.9997 58.5304 34.2104 59.0391 34.5854 59.4142C34.9605 59.7893 35.4692 60 35.9997 60H58.0017C58.3082 59.9932 58.6092 59.9166 58.8817 59.776C58.9437 59.742 59.0137 59.728 59.0757 59.688C59.1357 59.648 59.1717 59.586 59.2257 59.544C59.4322 59.3828 59.6032 59.1806 59.7277 58.95C59.7877 58.838 59.8377 58.73 59.8777 58.606C59.9183 58.4752 59.9451 58.3404 59.9577 58.204C59.9657 58.132 59.9997 58.072 59.9997 58C59.9997 57.946 59.9717 57.898 59.9677 57.844Z" fill="#DD2E44"/>
<path d="M43.1617 32L37.3637 48.234L25.5057 34.684C25.3337 34.483 25.1236 34.3182 24.8874 34.199C24.6513 34.0798 24.3939 34.0086 24.1301 33.9896C23.8663 33.9706 23.6013 34.004 23.3505 34.0881C23.0997 34.1722 22.8681 34.3051 22.6691 34.4793C22.47 34.6535 22.3075 34.8654 22.1909 35.1029C22.0743 35.3403 22.006 35.5985 21.9899 35.8625C21.9737 36.1265 22.0101 36.3911 22.097 36.6409C22.1838 36.8907 22.3193 37.1209 22.4957 37.318L35.8237 52.548L34.1157 57.328C33.9374 57.8277 33.965 58.3777 34.1923 58.857C34.4196 59.3364 34.828 59.7058 35.3277 59.884C35.8273 60.0622 36.3773 60.0347 36.8567 59.8074C37.336 59.5801 37.7054 59.1717 37.8837 58.672L47.4097 32H43.1617Z" fill="#DD2E44"/>
<path d="M13.9997 60C13.6591 59.9995 13.3242 59.912 13.0269 59.7458C12.7296 59.5796 12.4796 59.3402 12.3007 59.0504C12.1219 58.7605 12.02 58.4298 12.0047 58.0895C11.9895 57.7492 12.0614 57.4107 12.2137 57.106L18.3377 44.894C18.3717 44.838 21.9997 39.302 21.9997 34C21.9997 27.516 17.4137 25.914 17.3677 25.898C17.1153 25.8175 16.8815 25.6877 16.6797 25.5161C16.478 25.3444 16.3123 25.1345 16.1924 24.8983C16.0724 24.6621 16.0006 24.4045 15.981 24.1404C15.9614 23.8762 15.9945 23.6108 16.0784 23.3596C16.1622 23.1083 16.2951 22.8762 16.4694 22.6767C16.6437 22.4773 16.8558 22.3144 17.0935 22.1976C17.3313 22.0808 17.5898 22.0124 17.8542 21.9963C18.1186 21.9802 18.3835 22.0168 18.6337 22.104C18.9337 22.204 25.9997 24.666 25.9997 34C25.9997 40.136 22.3277 46.084 21.7377 46.994L15.7897 58.892C15.6244 59.2253 15.3691 59.5057 15.0528 59.7015C14.7365 59.8973 14.3717 60.0007 13.9997 60Z" fill="#DD2E44"/>
<path d="M29.2237 27.326C29.113 27.3265 29.0026 27.3171 28.8937 27.298L16.8937 25.298C16.3704 25.2107 15.9032 24.9192 15.5949 24.4875C15.2866 24.0558 15.1624 23.5193 15.2497 22.996C15.3369 22.4727 15.6285 22.0055 16.0602 21.6972C16.4919 21.3889 17.0284 21.2647 17.5517 21.352L29.5517 23.352C30.0482 23.4328 30.4961 23.6978 30.8059 24.0942C31.1158 24.4905 31.2649 24.9891 31.2235 25.4905C31.1821 25.9919 30.9533 26.4593 30.5827 26.7995C30.212 27.1397 29.7268 27.3277 29.2237 27.326ZM52.7657 34C52.7061 34 52.6467 33.996 52.5877 33.988L41.2437 32.572C40.8746 32.5413 40.5323 32.3673 40.29 32.0873C40.0478 31.8072 39.9248 31.4434 39.9476 31.0738C39.9703 30.7042 40.137 30.3583 40.4118 30.11C40.6866 29.8618 41.0477 29.7311 41.4177 29.746C41.4997 29.746 49.5517 29.71 53.3957 27.148C53.6419 26.9849 53.9327 26.9023 54.2279 26.9117C54.5231 26.921 54.8082 27.0217 55.0437 27.2C55.2775 27.3803 55.4495 27.6288 55.5358 27.9112C55.6222 28.1935 55.6186 28.4957 55.5257 28.776L54.1077 33.03C54.0149 33.3125 53.8351 33.5585 53.5941 33.7327C53.353 33.907 53.0631 34.0005 52.7657 34Z" fill="#292F33"/>
<path d="M39.9997 58C39.9997 59.0609 39.5782 60.0783 38.8281 60.8284C38.0779 61.5786 37.0605 62 35.9997 62C34.9388 62 33.9214 61.5786 33.1712 60.8284C32.4211 60.0783 31.9997 59.0609 31.9997 58C31.9997 56.9391 32.4211 55.9217 33.1712 55.1716C33.9214 54.4214 34.9388 54 35.9997 54C37.0605 54 38.0779 54.4214 38.8281 55.1716C39.5782 55.9217 39.9997 56.9391 39.9997 58Z" fill="#66757F"/>
</g>
<defs>
<clipPath id="clip0_1_812">
<rect width="72" height="72" fill="white" transform="translate(-0.000335693)"/>
</clipPath>
</defs>
</svg>
