<svg width="64" height="64" viewBox="0 0 64 64" fill="none" xmlns="http://www.w3.org/2000/svg">
<g clip-path="url(#clip0_1_801)">
<path d="M60.4441 51.7262C59.7028 50.0142 58.8512 48.1564 56.8886 48.1564H55.1108C57.0734 48.1564 58.6663 46.5582 58.6663 44.5867V14.2364C58.6673 13.7686 58.576 13.3051 58.3979 12.8725C58.2197 12.4399 57.958 12.0466 57.6279 11.7152C57.2977 11.3837 56.9055 11.1205 56.4736 10.9406C56.0417 10.7607 55.5786 10.6676 55.1108 10.6667H8.88855C6.92589 10.6667 5.333 12.2649 5.333 14.2364V44.5867C5.333 46.5582 6.92589 48.1564 8.88855 48.1564H7.11078C5.14811 48.1564 4.14722 49.9413 3.55522 51.7262L-0.000335693 60.4284C-0.000335693 62.4018 1.59255 64 3.55522 64H60.4441C62.4068 64 63.9997 62.4018 63.9997 60.4302L60.4441 51.7262Z" fill="#CCD6DD"/>
<path d="M0.0138855 60.5778L0.0245522 60.6791L0.326774 61.9093C0.607378 62.531 1.06103 63.0587 1.63353 63.4295C2.20603 63.8002 2.87316 63.9983 3.55522 64H60.4441C61.362 63.997 62.2431 63.6391 62.9032 63.0013C63.5632 62.3634 63.951 61.495 63.9854 60.5778H0.0138855Z" fill="#9AAAB4"/>
<path d="M55.1108 42.8C55.1108 43.7867 54.3161 44.5849 53.333 44.5849H10.6663C9.68499 44.5849 8.88855 43.7867 8.88855 42.8V16.0231C8.88855 15.0364 9.68499 14.2382 10.6663 14.2382H53.333C54.3161 14.2382 55.1108 15.0382 55.1108 16.0231V42.8Z" fill="#5DADEC"/>
<path d="M58.4992 55.1858L57.1481 51.3191C56.7232 50.5013 56.0192 49.8311 55.0361 49.8311H9.08411C8.10278 49.8311 7.47344 50.5564 7.029 51.6729L5.80589 55.1876C5.41656 56.2471 6.60233 56.9724 7.58367 56.9724H21.0557C21.0557 56.9724 22.7214 56.8889 23.0166 55.8916C23.3579 54.7396 23.7543 53.0044 23.8397 52.6987C23.9712 52.2293 24.5294 51.7547 25.3614 51.7547H40.6112C41.5001 51.7547 41.9374 52.2044 42.053 52.7609C42.1277 53.1236 42.6077 54.7893 42.8317 55.9289C43.029 56.944 45.0023 56.9707 45.0023 56.9707H56.725C57.7046 56.9707 58.8886 56.1333 58.4992 55.1858Z" fill="#AEBBC1"/>
<path d="M39.7774 58.8676H25.9446C25.2779 58.8676 24.9881 58.2578 25.0841 57.6676C25.1801 57.0791 25.7223 54.48 25.765 54.1778C25.8059 53.8738 26.2521 53.5111 26.6966 53.5111H39.1677C39.6957 53.5111 40.0388 53.8009 40.1454 54.3804C40.2503 54.9618 40.6823 57.2978 40.7161 57.8311C40.7499 58.3662 40.4157 58.8676 39.7774 58.8676Z" fill="#9AAAB4"/>
</g>
<defs>
<clipPath id="clip0_1_801">
<rect width="64" height="64" fill="white" transform="translate(-0.000335693)"/>
</clipPath>
</defs>
</svg>
