<svg width="21" height="20" viewBox="0 0 21 20" fill="none" xmlns="http://www.w3.org/2000/svg">
<path d="M10.6534 20C5.13038 20 0.653381 15.523 0.653381 10C0.653381 4.477 5.13038 0 10.6534 0C16.1764 0 20.6534 4.477 20.6534 10C20.6534 15.523 16.1764 20 10.6534 20ZM10.6534 18C12.7751 18 14.8099 17.1571 16.3102 15.6569C17.8105 14.1566 18.6534 12.1217 18.6534 10C18.6534 7.87827 17.8105 5.84344 16.3102 4.34315C14.8099 2.84285 12.7751 2 10.6534 2C8.53165 2 6.49682 2.84285 4.99653 4.34315C3.49624 5.84344 2.65338 7.87827 2.65338 10C2.65338 12.1217 3.49624 14.1566 4.99653 15.6569C6.49682 17.1571 8.53165 18 10.6534 18ZM9.65338 13H11.6534V15H9.65338V13ZM11.6534 11.355V12H9.65338V10.5C9.65338 10.2348 9.75874 9.98043 9.94627 9.79289C10.1338 9.60536 10.3882 9.5 10.6534 9.5C10.9375 9.49998 11.2157 9.4193 11.4557 9.26733C11.6957 9.11536 11.8876 8.89837 12.0092 8.64158C12.1307 8.3848 12.1768 8.0988 12.1421 7.81684C12.1074 7.53489 11.9933 7.26858 11.8132 7.04891C11.6331 6.82924 11.3943 6.66523 11.1246 6.57597C10.8549 6.48671 10.5654 6.47587 10.2898 6.54471C10.0142 6.61354 9.7638 6.75923 9.56775 6.96482C9.3717 7.1704 9.23806 7.42743 9.18238 7.706L7.22038 7.313C7.34201 6.70508 7.62289 6.14037 8.0343 5.67659C8.44571 5.2128 8.9729 4.86658 9.56197 4.67332C10.151 4.48006 10.7809 4.44669 11.3871 4.57661C11.9933 4.70654 12.5541 4.99511 13.0122 5.41282C13.4703 5.83054 13.8093 6.36241 13.9945 6.95406C14.1797 7.54572 14.2044 8.17594 14.0662 8.78031C13.928 9.38467 13.6318 9.9415 13.2079 10.3939C12.784 10.8462 12.2475 11.1779 11.6534 11.355Z" fill="#1A191E"/>
</svg>
